solid craftml
facet normal 0 0 -1
outer loop
vertex 19.65925826289068 -7.411809548974793 0
vertex 20 -10 0
vertex 10 -10 0
endloop
endfacet
facet normal 0.9914448613738104 0.13052619222005224 0
outer loop
vertex 19.65925826289068 -7.411809548974793 50
vertex 20 -10 50
vertex 20 -10 0
endloop
endfacet
facet normal 0.9914448613738104 0.13052619222005224 0
outer loop
vertex 19.65925826289068 -7.411809548974793 50
vertex 20 -10 0
vertex 19.65925826289068 -7.411809548974793 0
endloop
endfacet
facet normal 0 0 1
outer loop
vertex 20 -10 50
vertex 19.65925826289068 -7.411809548974793 50
vertex 10 -10 50
endloop
endfacet
facet normal 0 0 -1
outer loop
vertex 18.66025403784439 -5.000000000000001 0
vertex 19.65925826289068 -7.411809548974793 0
vertex 10 -10 0
endloop
endfacet
facet normal 0.9238795325112873 0.3826834323650884 0
outer loop
vertex 18.66025403784439 -5.000000000000001 50
vertex 19.65925826289068 -7.411809548974793 50
vertex 19.65925826289068 -7.411809548974793 0
endloop
endfacet
facet normal 0.9238795325112873 0.3826834323650884 0
outer loop
vertex 18.66025403784439 -5.000000000000001 50
vertex 19.65925826289068 -7.411809548974793 0
vertex 18.66025403784439 -5.000000000000001 0
endloop
endfacet
facet normal 0 0 1
outer loop
vertex 19.65925826289068 -7.411809548974793 50
vertex 18.66025403784439 -5.000000000000001 50
vertex 10 -10 50
endloop
endfacet
facet normal 0 0 -1
outer loop
vertex 17.071067811865476 -2.9289321881345254 0
vertex 18.66025403784439 -5.000000000000001 0
vertex 10 -10 0
endloop
endfacet
facet normal 0.7933533402912347 0.6087614290087211 0
outer loop
vertex 17.071067811865476 -2.9289321881345254 50
vertex 18.66025403784439 -5.000000000000001 50
vertex 18.66025403784439 -5.000000000000001 0
endloop
endfacet
facet normal 0.7933533402912347 0.6087614290087211 0
outer loop
vertex 17.071067811865476 -2.9289321881345254 50
vertex 18.66025403784439 -5.000000000000001 0
vertex 17.071067811865476 -2.9289321881345254 0
endloop
endfacet
facet normal 0 0 1
outer loop
vertex 18.66025403784439 -5.000000000000001 50
vertex 17.071067811865476 -2.9289321881345254 50
vertex 10 -10 50
endloop
endfacet
facet normal 0 0 -1
outer loop
vertex 15 -1.3397459621556145 0
vertex 17.071067811865476 -2.9289321881345254 0
vertex 10 -10 0
endloop
endfacet
facet normal 0.6087614290087205 0.7933533402912353 0
outer loop
vertex 15 -1.3397459621556145 50
vertex 17.071067811865476 -2.9289321881345254 50
vertex 17.071067811865476 -2.9289321881345254 0
endloop
endfacet
facet normal 0.6087614290087205 0.7933533402912353 0
outer loop
vertex 15 -1.3397459621556145 50
vertex 17.071067811865476 -2.9289321881345254 0
vertex 15 -1.3397459621556145 0
endloop
endfacet
facet normal 0 0 1
outer loop
vertex 17.071067811865476 -2.9289321881345254 50
vertex 15 -1.3397459621556145 50
vertex 10 -10 50
endloop
endfacet
facet normal 0 0 -1
outer loop
vertex 12.588190451025207 -0.3407417371093171 0
vertex 15 -1.3397459621556145 0
vertex 10 -10 0
endloop
endfacet
facet normal 0.38268343236509006 0.9238795325112866 0
outer loop
vertex 12.588190451025207 -0.3407417371093171 50
vertex 15 -1.3397459621556145 50
vertex 15 -1.3397459621556145 0
endloop
endfacet
facet normal 0.38268343236509006 0.9238795325112866 0
outer loop
vertex 12.588190451025207 -0.3407417371093171 50
vertex 15 -1.3397459621556145 0
vertex 12.588190451025207 -0.3407417371093171 0
endloop
endfacet
facet normal 0 0 1
outer loop
vertex 15 -1.3397459621556145 50
vertex 12.588190451025207 -0.3407417371093171 50
vertex 10 -10 50
endloop
endfacet
facet normal 0 0 -1
outer loop
vertex 10 0 0
vertex 12.588190451025207 -0.3407417371093171 0
vertex 10 -10 0
endloop
endfacet
facet normal 0.13052619222005157 0.9914448613738104 0
outer loop
vertex 10 0 50
vertex 12.588190451025207 -0.3407417371093171 50
vertex 12.588190451025207 -0.3407417371093171 0
endloop
endfacet
facet normal 0.13052619222005157 0.9914448613738104 0
outer loop
vertex 10 0 50
vertex 12.588190451025207 -0.3407417371093171 0
vertex 10 0 0
endloop
endfacet
facet normal 0 0 1
outer loop
vertex 12.588190451025207 -0.3407417371093171 50
vertex 10 0 50
vertex 10 -10 50
endloop
endfacet
facet normal 0 0 -1
outer loop
vertex 7.411809548974792 -0.3407417371093171 0
vertex 10 0 0
vertex 10 -10 0
endloop
endfacet
facet normal -0.13052619222005155 0.9914448613738104 0
outer loop
vertex 7.411809548974792 -0.3407417371093171 50
vertex 10 0 50
vertex 10 0 0
endloop
endfacet
facet normal -0.13052619222005155 0.9914448613738104 0
outer loop
vertex 7.411809548974792 -0.3407417371093171 50
vertex 10 0 0
vertex 7.411809548974792 -0.3407417371093171 0
endloop
endfacet
facet normal 0 0 1
outer loop
vertex 10 0 50
vertex 7.411809548974792 -0.3407417371093171 50
vertex 10 -10 50
endloop
endfacet
facet normal 0 0 -1
outer loop
vertex 5.000000000000002 -1.3397459621556127 0
vertex 7.411809548974792 -0.3407417371093171 0
vertex 10 -10 0
endloop
endfacet
facet normal -0.38268343236508984 0.9238795325112867 0
outer loop
vertex 5.000000000000002 -1.3397459621556127 50
vertex 7.411809548974792 -0.3407417371093171 50
vertex 7.411809548974792 -0.3407417371093171 0
endloop
endfacet
facet normal -0.38268343236508984 0.9238795325112867 0
outer loop
vertex 5.000000000000002 -1.3397459621556127 50
vertex 7.411809548974792 -0.3407417371093171 0
vertex 5.000000000000002 -1.3397459621556127 0
endloop
endfacet
facet normal 0 0 1
outer loop
vertex 7.411809548974792 -0.3407417371093171 50
vertex 5.000000000000002 -1.3397459621556127 50
vertex 10 -10 50
endloop
endfacet
facet normal 0 0 -1
outer loop
vertex 2.9289321881345254 -2.9289321881345245 0
vertex 5.000000000000002 -1.3397459621556127 0
vertex 10 -10 0
endloop
endfacet
facet normal -0.6087614290087205 0.7933533402912352 0
outer loop
vertex 2.9289321881345254 -2.9289321881345245 50
vertex 5.000000000000002 -1.3397459621556127 50
vertex 5.000000000000002 -1.3397459621556127 0
endloop
endfacet
facet normal -0.6087614290087205 0.7933533402912352 0
outer loop
vertex 2.9289321881345254 -2.9289321881345245 50
vertex 5.000000000000002 -1.3397459621556127 0
vertex 2.9289321881345254 -2.9289321881345245 0
endloop
endfacet
facet normal 0 0 1
outer loop
vertex 5.000000000000002 -1.3397459621556127 50
vertex 2.9289321881345254 -2.9289321881345245 50
vertex 10 -10 50
endloop
endfacet
facet normal 0 0 -1
outer loop
vertex 1.3397459621556127 -5.000000000000001 0
vertex 2.9289321881345254 -2.9289321881345245 0
vertex 10 -10 0
endloop
endfacet
facet normal -0.793353340291235 0.6087614290087208 0
outer loop
vertex 1.3397459621556127 -5.000000000000001 50
vertex 2.9289321881345254 -2.9289321881345245 50
vertex 2.9289321881345254 -2.9289321881345245 0
endloop
endfacet
facet normal -0.793353340291235 0.6087614290087208 0
outer loop
vertex 1.3397459621556127 -5.000000000000001 50
vertex 2.9289321881345254 -2.9289321881345245 0
vertex 1.3397459621556127 -5.000000000000001 0
endloop
endfacet
facet normal 0 0 1
outer loop
vertex 2.9289321881345254 -2.9289321881345245 50
vertex 1.3397459621556127 -5.000000000000001 50
vertex 10 -10 50
endloop
endfacet
facet normal 0 0 -1
outer loop
vertex 0.3407417371093189 -7.41180954897479 0
vertex 1.3397459621556127 -5.000000000000001 0
vertex 10 -10 0
endloop
endfacet
facet normal -0.9238795325112871 0.3826834323650894 0
outer loop
vertex 0.3407417371093189 -7.41180954897479 50
vertex 1.3397459621556127 -5.000000000000001 50
vertex 1.3397459621556127 -5.000000000000001 0
endloop
endfacet
facet normal -0.9238795325112871 0.3826834323650894 0
outer loop
vertex 0.3407417371093189 -7.41180954897479 50
vertex 1.3397459621556127 -5.000000000000001 0
vertex 0.3407417371093189 -7.41180954897479 0
endloop
endfacet
facet normal 0 0 1
outer loop
vertex 1.3397459621556127 -5.000000000000001 50
vertex 0.3407417371093189 -7.41180954897479 50
vertex 10 -10 50
endloop
endfacet
facet normal 0 0 -1
outer loop
vertex 0 -9.999999999999998 0
vertex 0.3407417371093189 -7.41180954897479 0
vertex 10 -10 0
endloop
endfacet
facet normal -0.9914448613738104 0.1305261922200522 0
outer loop
vertex 0 -9.999999999999998 50
vertex 0.3407417371093189 -7.41180954897479 50
vertex 0.3407417371093189 -7.41180954897479 0
endloop
endfacet
facet normal -0.9914448613738104 0.1305261922200522 0
outer loop
vertex 0 -9.999999999999998 50
vertex 0.3407417371093189 -7.41180954897479 0
vertex 0 -9.999999999999998 0
endloop
endfacet
facet normal 0 0 1
outer loop
vertex 0.3407417371093189 -7.41180954897479 50
vertex 0 -9.999999999999998 50
vertex 10 -10 50
endloop
endfacet
facet normal 0 0 -1
outer loop
vertex 0.3407417371093153 -12.588190451025204 0
vertex 0 -9.999999999999998 0
vertex 10 -10 0
endloop
endfacet
facet normal -0.9914448613738106 -0.13052619222005102 0
outer loop
vertex 0.3407417371093153 -12.588190451025204 50
vertex 0 -9.999999999999998 50
vertex 0 -9.999999999999998 0
endloop
endfacet
facet normal -0.9914448613738106 -0.13052619222005102 0
outer loop
vertex 0.3407417371093153 -12.588190451025204 50
vertex 0 -9.999999999999998 0
vertex 0.3407417371093153 -12.588190451025204 0
endloop
endfacet
facet normal 0 0 1
outer loop
vertex 0 -9.999999999999998 50
vertex 0.3407417371093153 -12.588190451025204 50
vertex 10 -10 50
endloop
endfacet
facet normal 0 0 -1
outer loop
vertex 1.3397459621556145 -15 0
vertex 0.3407417371093153 -12.588190451025204 0
vertex 10 -10 0
endloop
endfacet
facet normal -0.9238795325112867 -0.3826834323650902 0
outer loop
vertex 1.3397459621556145 -15 50
vertex 0.3407417371093153 -12.588190451025204 50
vertex 0.3407417371093153 -12.588190451025204 0
endloop
endfacet
facet normal -0.9238795325112867 -0.3826834323650902 0
outer loop
vertex 1.3397459621556145 -15 50
vertex 0.3407417371093153 -12.588190451025204 0
vertex 1.3397459621556145 -15 0
endloop
endfacet
facet normal 0 0 1
outer loop
vertex 0.3407417371093153 -12.588190451025204 50
vertex 1.3397459621556145 -15 50
vertex 10 -10 50
endloop
endfacet
facet normal 0 0 -1
outer loop
vertex 2.9289321881345227 -17.071067811865476 0
vertex 1.3397459621556145 -15 0
vertex 10 -10 0
endloop
endfacet
facet normal -0.7933533402912357 -0.6087614290087199 0
outer loop
vertex 2.9289321881345227 -17.071067811865476 50
vertex 1.3397459621556145 -15 50
vertex 1.3397459621556145 -15 0
endloop
endfacet
facet normal -0.7933533402912357 -0.6087614290087199 0
outer loop
vertex 2.9289321881345227 -17.071067811865476 50
vertex 1.3397459621556145 -15 0
vertex 2.9289321881345227 -17.071067811865476 0
endloop
endfacet
facet normal 0 0 1
outer loop
vertex 1.3397459621556145 -15 50
vertex 2.9289321881345227 -17.071067811865476 50
vertex 10 -10 50
endloop
endfacet
facet normal 0 0 -1
outer loop
vertex 4.999999999999996 -18.660254037844386 0
vertex 2.9289321881345227 -17.071067811865476 0
vertex 10 -10 0
endloop
endfacet
facet normal -0.6087614290087208 -0.793353340291235 0
outer loop
vertex 4.999999999999996 -18.660254037844386 50
vertex 2.9289321881345227 -17.071067811865476 50
vertex 2.9289321881345227 -17.071067811865476 0
endloop
endfacet
facet normal -0.6087614290087208 -0.793353340291235 0
outer loop
vertex 4.999999999999996 -18.660254037844386 50
vertex 2.9289321881345227 -17.071067811865476 0
vertex 4.999999999999996 -18.660254037844386 0
endloop
endfacet
facet normal 0 0 1
outer loop
vertex 2.9289321881345227 -17.071067811865476 50
vertex 4.999999999999996 -18.660254037844386 50
vertex 10 -10 50
endloop
endfacet
facet normal 0 0 -1
outer loop
vertex 7.4118095489747935 -19.65925826289068 0
vertex 4.999999999999996 -18.660254037844386 0
vertex 10 -10 0
endloop
endfacet
facet normal -0.3826834323650888 -0.9238795325112873 0
outer loop
vertex 7.4118095489747935 -19.65925826289068 50
vertex 4.999999999999996 -18.660254037844386 50
vertex 4.999999999999996 -18.660254037844386 0
endloop
endfacet
facet normal -0.3826834323650888 -0.9238795325112873 0
outer loop
vertex 7.4118095489747935 -19.65925826289068 50
vertex 4.999999999999996 -18.660254037844386 0
vertex 7.4118095489747935 -19.65925826289068 0
endloop
endfacet
facet normal 0 0 1
outer loop
vertex 4.999999999999996 -18.660254037844386 50
vertex 7.4118095489747935 -19.65925826289068 50
vertex 10 -10 50
endloop
endfacet
facet normal 0 0 -1
outer loop
vertex 9.999999999999998 -20 0
vertex 7.4118095489747935 -19.65925826289068 0
vertex 10 -10 0
endloop
endfacet
facet normal -0.1305261922200524 -0.9914448613738104 0
outer loop
vertex 9.999999999999998 -20 50
vertex 7.4118095489747935 -19.65925826289068 50
vertex 7.4118095489747935 -19.65925826289068 0
endloop
endfacet
facet normal -0.1305261922200524 -0.9914448613738104 0
outer loop
vertex 9.999999999999998 -20 50
vertex 7.4118095489747935 -19.65925826289068 0
vertex 9.999999999999998 -20 0
endloop
endfacet
facet normal 0 0 1
outer loop
vertex 7.4118095489747935 -19.65925826289068 50
vertex 9.999999999999998 -20 50
vertex 10 -10 50
endloop
endfacet
facet normal 0 0 -1
outer loop
vertex 12.588190451025202 -19.659258262890685 0
vertex 9.999999999999998 -20 0
vertex 10 -10 0
endloop
endfacet
facet normal 0.13052619222005113 -0.9914448613738106 0
outer loop
vertex 12.588190451025202 -19.659258262890685 50
vertex 9.999999999999998 -20 50
vertex 9.999999999999998 -20 0
endloop
endfacet
facet normal 0.13052619222005113 -0.9914448613738106 0
outer loop
vertex 12.588190451025202 -19.659258262890685 50
vertex 9.999999999999998 -20 0
vertex 12.588190451025202 -19.659258262890685 0
endloop
endfacet
facet normal 0 0 1
outer loop
vertex 9.999999999999998 -20 50
vertex 12.588190451025202 -19.659258262890685 50
vertex 10 -10 50
endloop
endfacet
facet normal 0 0 -1
outer loop
vertex 15 -18.660254037844386 0
vertex 12.588190451025202 -19.659258262890685 0
vertex 10 -10 0
endloop
endfacet
facet normal 0.3826834323650899 -0.9238795325112866 0
outer loop
vertex 15 -18.660254037844386 50
vertex 12.588190451025202 -19.659258262890685 50
vertex 12.588190451025202 -19.659258262890685 0
endloop
endfacet
facet normal 0.3826834323650899 -0.9238795325112866 0
outer loop
vertex 15 -18.660254037844386 50
vertex 12.588190451025202 -19.659258262890685 0
vertex 15 -18.660254037844386 0
endloop
endfacet
facet normal 0 0 1
outer loop
vertex 12.588190451025202 -19.659258262890685 50
vertex 15 -18.660254037844386 50
vertex 10 -10 50
endloop
endfacet
facet normal 0 0 -1
outer loop
vertex 17.071067811865476 -17.071067811865476 0
vertex 15 -18.660254037844386 0
vertex 10 -10 0
endloop
endfacet
facet normal 0.6087614290087202 -0.7933533402912354 0
outer loop
vertex 17.071067811865476 -17.071067811865476 50
vertex 15 -18.660254037844386 50
vertex 15 -18.660254037844386 0
endloop
endfacet
facet normal 0.6087614290087202 -0.7933533402912354 0
outer loop
vertex 17.071067811865476 -17.071067811865476 50
vertex 15 -18.660254037844386 0
vertex 17.071067811865476 -17.071067811865476 0
endloop
endfacet
facet normal 0 0 1
outer loop
vertex 15 -18.660254037844386 50
vertex 17.071067811865476 -17.071067811865476 50
vertex 10 -10 50
endloop
endfacet
facet normal 0 0 -1
outer loop
vertex 18.660254037844382 -15.000000000000004 0
vertex 17.071067811865476 -17.071067811865476 0
vertex 10 -10 0
endloop
endfacet
facet normal 0.7933533402912356 -0.6087614290087201 0
outer loop
vertex 18.660254037844382 -15.000000000000004 50
vertex 17.071067811865476 -17.071067811865476 50
vertex 17.071067811865476 -17.071067811865476 0
endloop
endfacet
facet normal 0.7933533402912356 -0.6087614290087201 0
outer loop
vertex 18.660254037844382 -15.000000000000004 50
vertex 17.071067811865476 -17.071067811865476 0
vertex 18.660254037844382 -15.000000000000004 0
endloop
endfacet
facet normal 0 0 1
outer loop
vertex 17.071067811865476 -17.071067811865476 50
vertex 18.660254037844382 -15.000000000000004 50
vertex 10 -10 50
endloop
endfacet
facet normal 0 0 -1
outer loop
vertex 19.65925826289068 -12.588190451025207 0
vertex 18.660254037844382 -15.000000000000004 0
vertex 10 -10 0
endloop
endfacet
facet normal 0.9238795325112867 -0.3826834323650902 0
outer loop
vertex 19.65925826289068 -12.588190451025207 50
vertex 18.660254037844382 -15.000000000000004 50
vertex 18.660254037844382 -15.000000000000004 0
endloop
endfacet
facet normal 0.9238795325112867 -0.3826834323650902 0
outer loop
vertex 19.65925826289068 -12.588190451025207 50
vertex 18.660254037844382 -15.000000000000004 0
vertex 19.65925826289068 -12.588190451025207 0
endloop
endfacet
facet normal 0 0 1
outer loop
vertex 18.660254037844382 -15.000000000000004 50
vertex 19.65925826289068 -12.588190451025207 50
vertex 10 -10 50
endloop
endfacet
facet normal 0 0 -1
outer loop
vertex 20 -10.000000000000002 0
vertex 19.65925826289068 -12.588190451025207 0
vertex 10 -10 0
endloop
endfacet
facet normal 0.9914448613738104 -0.13052619222005235 0
outer loop
vertex 20 -10.000000000000002 50
vertex 19.65925826289068 -12.588190451025207 50
vertex 19.65925826289068 -12.588190451025207 0
endloop
endfacet
facet normal 0.9914448613738104 -0.13052619222005235 0
outer loop
vertex 20 -10.000000000000002 50
vertex 19.65925826289068 -12.588190451025207 0
vertex 20 -10.000000000000002 0
endloop
endfacet
facet normal 0 0 1
outer loop
vertex 19.65925826289068 -12.588190451025207 50
vertex 20 -10.000000000000002 50
vertex 10 -10 50
endloop
endfacet
endsolid craftml
