<?xml version="1.0" encoding="iso-8859-1"?>
<!-- Generator: Adobe Illustrator 16.0.0, SVG Export Plug-In . SVG Version: 6.00 Build 0)  -->
<!DOCTYPE svg PUBLIC "-//W3C//DTD SVG 1.1//EN" "http://www.w3.org/Graphics/SVG/1.1/DTD/svg11.dtd">
<svg version="1.1" id="Capa_1" xmlns="http://www.w3.org/2000/svg" xmlns:xlink="http://www.w3.org/1999/xlink" x="0px" y="0px"
	 width="147.64px" height="147.64px" viewBox="0 0 147.64 147.64" style="enable-background:new 0 0 147.64 147.64;"
	 xml:space="preserve">
<g>
	<path d="M147.073,91.772c-0.028-1.116-0.473-2.162-1.567-2.605c-1.421-0.563-3.145,0.099-3.752,1.582
		c-4.435,10.944-14.229,16.481-29.083,16.481H35.48c0.028-0.098,0.119-0.153,0.119-0.264V79.235
		c4.604-1.927,9.446-3.005,14.825-3.005c8.759,0,17.476,2.431,26.717,5.003c9.195,2.561,18.697,5.208,28.232,5.208
		c6.824,0,12.941-1.312,18.764-4.049c1.009-0.471,1.653-1.488,1.653-2.604V25.971c0-0.985-0.504-1.899-1.325-2.431
		c-0.842-0.532-1.869-0.595-2.769-0.173c-5.045,2.358-10.362,3.513-16.318,3.513c-8.741,0-17.477-2.427-26.701-5.004
		c-6.357-1.77-12.945-3.614-19.501-4.55c-0.304-0.043-0.565-0.039-0.853-0.079c-0.033,0-0.044-0.027-0.065-0.027
		c-0.023,0-0.037,0.022-0.063,0.022c-10.316-1.344-18.585-0.247-26.52,3.475c-1.011,0.476-1.653,1.485-1.653,2.599v36.11
		c-0.032,0.15-0.156,0.246-0.156,0.407v46.928C18.093,105.654,9.85,100.685,5.834,91.47c-0.667-1.467-2.348-2.145-3.796-1.487
		c-0.423,0.174-0.582,0.585-0.861,0.896c-0.203,0.154-0.341,0.301-0.471,0.481c-0.078,0.164-0.138,0.295-0.197,0.459
		C0.296,92.215,0,92.581,0,93.057c0,24.082,13.223,37.894,36.274,37.894h75.098c23.033,0,36.268-13.812,36.268-37.894
		C147.606,92.548,147.301,92.17,147.073,91.772z M35.761,72.866V51.725c6.483-2.679,12.992-3.207,19.589-2.572v21.65
		c-1.641-0.151-3.284-0.32-4.937-0.32C45.185,70.478,40.337,71.257,35.761,72.866z M105.363,80.697
		c-8.75,0-17.461-2.431-26.692-5.007c-5.746-1.599-11.633-3.161-17.562-4.165V49.941c5.256,0.96,10.58,2.449,15.997,3.962
		c9.241,2.585,18.719,5.217,28.28,5.217c4.847,0,9.728-0.818,14.642-2.534v21.324C115.481,79.777,110.66,80.697,105.363,80.697z
		M105.363,32.617c5.238,0,10.085-0.78,14.665-2.381v20.569c-0.176,0.033-0.345-0.079-0.503-0.005
	 c-13.391,5.267-26.721,1.518-40.854-2.427c-5.788-1.614-11.644-3.229-17.562-4.224V23.563c5.319,0.969,10.736,2.375,15.997,3.852
	 C86.305,29.96,95.81,32.617,105.363,32.617z M55.355,22.896V43.41c-6.467-0.574-13.013-0.041-19.59,2.252V25.18
	 C41.62,22.772,47.966,22.223,55.355,22.896z M111.335,125.184H36.242c-19.657,0-27.126-10.622-29.519-22.239
	 c5.419,5.549,13.997,10.036,27.866,10.036h78.068c14.175,0,22.841-4.662,28.247-10.441
	 C138.641,114.328,131.226,125.184,111.335,125.184z"/>
</g>
<g>
</g>
<g>
</g>
<g>
</g>
<g>
</g>
<g>
</g>
<g>
</g>
<g>
</g>
<g>
</g>
<g>
</g>
<g>
</g>
<g>
</g>
<g>
</g>
<g>
</g>
<g>
</g>
<g>
</g>
</svg>
