<?xml version="1.0" encoding="iso-8859-1"?>
<!-- Generator: Adobe Illustrator 16.0.0, SVG Export Plug-In . SVG Version: 6.00 Build 0)  -->
<!DOCTYPE svg PUBLIC "-//W3C//DTD SVG 1.1//EN" "http://www.w3.org/Graphics/SVG/1.1/DTD/svg11.dtd">
<svg version="1.1" id="Capa_1" xmlns="http://www.w3.org/2000/svg" xmlns:xlink="http://www.w3.org/1999/xlink" x="0px" y="0px"
	 width="187.059px" height="187.059px" viewBox="0 0 187.059 187.059" style="enable-background:new 0 0 187.059 187.059;"
	 xml:space="preserve">
<g>
	<path d="M158.147,18.149c-20.715-11.469-47.604-7.953-64.6,7.675c-17.083-15.601-43.891-19.11-64.661-7.675
		C11.079,27.956,0,46.686,0,67.058c0,5.849,0.928,11.667,2.588,16.575c8.917,40.109,84.076,87.708,87.276,89.699l3.684,2.332
		l3.685-2.332c3.19-1.991,78.306-49.59,87.05-89.021c1.839-5.587,2.777-11.393,2.777-17.253
		C187.059,46.686,175.976,27.956,158.147,18.149z M170.941,80.627c-6.022,27.057-54.814,63.823-77.394,78.639
		c-22.597-14.815-71.444-51.612-77.615-79.281c-1.373-4.205-2.064-8.525-2.064-12.921c0-15.29,8.318-29.398,21.699-36.8
		c6.241-3.41,13.244-5.213,20.276-5.213c12.532,0,24.317,5.557,32.373,15.22l5.344,6.415l5.315-6.415
		c12.574-15.189,35.201-19.562,52.604-10.007c13.39,7.407,21.708,21.51,21.708,36.8C173.188,71.454,172.5,75.78,170.941,80.627z
		 M148.162,36.35c-14.505-7.983-33.479-4.366-43.946,8.354L93.56,57.562L82.892,44.674C76.139,36.624,66.298,31.99,55.85,31.99
		c-5.885,0-11.734,1.486-16.91,4.33c-11.198,6.189-18.152,17.963-18.152,30.75c0,3.818,0.63,7.377,2.095,12.078
		c4.872,21.924,45.48,54.628,68.701,70.527c0.594,0.378,1.285,0.585,1.964,0.585c0.676,0,1.37-0.207,1.955-0.585
		c28.826-19.717,64.222-50.467,69.039-71.843c1.132-3.486,1.729-7.104,1.729-10.757C166.277,54.276,159.323,42.497,148.162,36.35z
		 M157.868,75.963c-4.062,17.991-35.805,46.811-64.32,66.63C65.014,122.774,33.39,94.501,29.581,77.385
		c-1.315-4.271-1.86-7.24-1.86-10.315c0-10.264,5.581-19.723,14.559-24.661c4.147-2.292,8.845-3.511,13.563-3.511
		c8.385,0,16.304,3.761,21.717,10.221l13.326,16.069c1.321,1.62,4.031,1.62,5.347,0l13.323-16.069
		C117.959,38.898,133.182,36,144.8,42.46c8.963,4.944,14.522,14.374,14.522,24.622C159.341,69.962,158.878,72.845,157.868,75.963z
		 M148.953,67.058c0,1.791-0.286,3.586-0.858,5.331c-2.874,12.382-23.997,34.973-52.494,55.919c-0.609,0.476-1.322,0.67-2.047,0.67
		c-0.728,0-1.439-0.194-2.052-0.646C63.83,108,42.1,85.715,39.798,75.357c-1.559-5.176-1.689-6.896-1.689-8.317
		c0-6.461,3.517-12.416,9.204-15.595c7.222-3.958,16.861-2.207,22.292,4.29c1.233,1.452,1.035,3.653-0.417,4.868
		c-1.456,1.331-3.605,1.087-4.89-0.39c-3.349-3.967-9.252-5.109-13.649-2.676c-3.45,1.927-5.599,5.55-5.599,9.496
		c0,0.573,0,1.69,1.453,6.604c1.452,6.491,18.499,26.277,47.05,47.59c28.681-21.446,45.748-41.635,47.886-50.708
		c0.42-1.354,0.584-2.438,0.584-3.486c0-3.958-2.131-7.581-5.583-9.478c-4.537-2.53-10.23-1.428-13.543,2.57
		c-1.211,1.519-3.397,1.72-4.865,0.472c-1.498-1.215-1.687-3.422-0.475-4.868c5.389-6.528,14.949-8.354,22.237-4.235
		C145.439,54.605,148.953,60.561,148.953,67.058z"/>
</g>
<g>
</g>
<g>
</g>
<g>
</g>
<g>
</g>
<g>
</g>
<g>
</g>
<g>
</g>
<g>
</g>
<g>
</g>
<g>
</g>
<g>
</g>
<g>
</g>
<g>
</g>
<g>
</g>
<g>
</g>
</svg>
