<?xml version="1.0" encoding="iso-8859-1"?>
<!-- Generator: Adobe Illustrator 18.1.1, SVG Export Plug-In . SVG Version: 6.00 Build 0)  -->
<svg version="1.1" id="Capa_1" xmlns="http://www.w3.org/2000/svg" xmlns:xlink="http://www.w3.org/1999/xlink" x="0px" y="0px"
	 viewBox="0 0 54.88 54.88" style="enable-background:new 0 0 54.88 54.88;" xml:space="preserve">
<g>
	<path style="fill:#030104;" d="M54.749,25.176c-0.19-0.324-0.551-0.515-0.992-0.525c-0.697-0.015-1.719-0.03-2.934-0.03
		c-5.003,0-11.256,0.245-14.573,1.315c-0.827-4.362-5.541-12.502-7.682-16.036c-0.457-0.758-1.44-0.757-1.899,0
		c-2.16,3.569-6.941,11.828-7.704,16.156c-3.214-1.17-9.729-1.434-14.911-1.434c-1.216,0-2.237,0.015-2.934,0.03
		c-0.442,0.009-0.803,0.201-0.99,0.525c-0.186,0.324-0.173,0.732,0.04,1.12c2.187,3.977,7.635,13.438,10.998,15.38
		c1.333,0.77,2.847,1.177,4.377,1.177c3.128,0,6.042-1.681,7.603-4.387c0.589-1.019,0.959-2.122,1.106-3.255
		c1.037,0.433,2.174,0.674,3.366,0.674c1.064,0,2.081-0.2,3.026-0.55c0.157,1.089,0.518,2.149,1.085,3.131
		c1.561,2.706,4.474,4.387,7.603,4.387c1.53,0,3.044-0.407,4.377-1.177c3.363-1.942,8.812-11.403,10.998-15.381
		C54.922,25.908,54.936,25.501,54.749,25.176z M22.28,37.967c-1.384,2.397-3.965,3.887-6.737,3.887c-1.355,0-2.696-0.36-3.877-1.042
		c-2.569-1.484-7.171-8.72-10.621-14.996c-0.044-0.081-0.049-0.132-0.056-0.132c0.01-0.008,0.056-0.03,0.15-0.032
		c0.692-0.015,1.706-0.03,2.913-0.03c7.301,0,12.483,0.516,14.799,1.458c0,0.011-0.003,0.025-0.003,0.036
		c0,3.261,1.792,6.105,4.44,7.617C23.194,35.858,22.861,36.96,22.28,37.967z M19.875,27.638c1.565,1.046,2.688,2.599,3.181,4.434
		c0.133,0.497,0.216,1,0.25,1.503C21.359,32.271,20.041,30.11,19.875,27.638z M30.557,34.304c-0.907,0.372-1.898,0.581-2.938,0.581
		c-1.183,0.001-2.3-0.273-3.304-0.746c0.004-0.775-0.088-1.557-0.294-2.326c-0.606-2.262-2.057-4.153-4.086-5.324
		c-0.01-0.005-0.021-0.01-0.031-0.016c0.556-4.12,5.912-13.236,7.619-16.055c0.049-0.082,0.093-0.111,0.085-0.115
		c0.012,0.004,0.055,0.033,0.104,0.114c3.413,5.636,7.034,12.513,7.593,15.89c-0.126,0.059-0.256,0.117-0.365,0.181
		c-2.029,1.171-3.48,3.062-4.086,5.324C30.633,32.636,30.537,33.474,30.557,34.304z M31.819,32.072
		c0.53-1.979,1.791-3.634,3.553-4.674c-0.099,2.724-1.601,5.09-3.808,6.399C31.586,33.22,31.666,32.643,31.819,32.072z
		 M53.83,25.815c-3.45,6.277-8.052,13.512-10.621,14.997c-1.181,0.682-2.521,1.042-3.877,1.042c-2.772,0-5.354-1.489-6.737-3.887
		c-0.549-0.952-0.878-1.987-0.992-3.049c2.835-1.454,4.784-4.402,4.784-7.803c0-0.052-0.012-0.116-0.014-0.17
		c2.467-0.857,7.502-1.323,14.449-1.323c1.207,0,2.221,0.015,2.913,0.03c0.095,0.002,0.142,0.024,0.142,0.017
		C53.88,25.68,53.876,25.732,53.83,25.815z M27.617,39.159c-1.762,0-3.195,1.433-3.195,3.194c0,1.763,1.434,3.196,3.195,3.196
		c1.762,0,3.195-1.434,3.195-3.196C30.812,40.591,29.378,39.159,27.617,39.159z M27.617,44.549c-1.211,0-2.195-0.985-2.195-2.196
		c0-1.21,0.984-2.194,2.195-2.194c1.211,0,2.195,0.984,2.195,2.194C29.812,43.564,28.828,44.549,27.617,44.549z"/>
</g>
<g>
</g>
<g>
</g>
<g>
</g>
<g>
</g>
<g>
</g>
<g>
</g>
<g>
</g>
<g>
</g>
<g>
</g>
<g>
</g>
<g>
</g>
<g>
</g>
<g>
</g>
<g>
</g>
<g>
</g>
</svg>
