<?xml version="1.0" encoding="iso-8859-1"?>
<!-- Generator: Adobe Illustrator 16.0.0, SVG Export Plug-In . SVG Version: 6.00 Build 0)  -->
<!DOCTYPE svg PUBLIC "-//W3C//DTD SVG 1.1//EN" "http://www.w3.org/Graphics/SVG/1.1/DTD/svg11.dtd">
<svg version="1.1" id="Capa_1" xmlns="http://www.w3.org/2000/svg" xmlns:xlink="http://www.w3.org/1999/xlink" x="0px" y="0px"
	 width="131.416px" height="131.415px" viewBox="0 0 131.416 131.415" style="enable-background:new 0 0 131.416 131.415;"
	 xml:space="preserve">
<g>
	<path d="M128.724,76.948c-4.92,0-8.92-3.922-9.048-8.78c0.042-0.238,0.066-0.481,0.066-0.652c0-1.321-1.053-2.405-2.393-2.405
		h-1.304l8.744-4.18c0.585-0.28,1.06-0.792,1.23-1.422c0.213-0.621,0.164-1.297-0.158-1.87c-0.207-0.393-0.433-0.673-0.585-0.792
		c-1.022-2.207-1.126-4.677-0.286-6.96c0.858-2.256,2.527-4.059,4.549-5.005c0.676-0.177,1.267-0.643,1.571-1.285
		c0.328-0.643,0.328-1.392,0.024-2.046l-13.195-28.649c-0.487-1.044-1.693-1.604-2.753-1.324c-0.231,0.07-0.535,0.213-0.791,0.374
		c-4.524,1.952-9.804-0.036-11.722-4.003c-0.049-0.262-0.165-0.734-0.286-0.971c-0.585-1.148-1.942-1.672-3.154-1.099L8.159,47.863
		c-1.148,0.536-1.44,2.299-0.971,3.483c1.02,2.189,1.12,4.646,0.28,6.923c-0.819,2.274-2.503,4.095-4.841,5.105
		c-0.305,0.043-0.609,0.109-0.911,0.201c-0.648,0.195-1.208,0.664-1.495,1.291c-0.28,0.615-0.305,1.327-0.019,1.961l4.29,9.889
		c-0.612-0.006-1.279,0.098-1.803,0.523c-0.511,0.451-0.816,1.108-0.816,1.814v32.017c0,0.7,0.305,1.358,0.816,1.815
		c0.524,0.443,1.19,0.614,1.934,0.565c0.094-0.03,0.91-0.237,1.005-0.262c5.023,0,9.121,4.067,9.097,9.036
		c-0.052,0.135-0.188,0.713-0.213,0.859c-0.07,0.676,0.137,1.369,0.584,1.881c0.469,0.518,1.129,0.804,1.802,0.804h100.627
		c0.012,0,0.036,0,0.061,0c0,0,0.024,0,0.055,0c1.334,0,2.405-1.077,2.405-2.399c0-0.456-0.128-0.895-0.378-1.248
		c0.098-4.944,4.117-8.933,8.635-8.975c1.522,0.341,3.111-0.798,3.111-2.303V79.292C131.379,77.971,130.052,76.948,128.724,76.948z
		 M11.962,59.914c1.004-2.792,1.129-5.766,0.237-8.653l86.932-40.069c3.324,5.057,9.663,7.453,15.394,5.757l11.301,24.549
		c-2.447,1.602-4.293,3.939-5.321,6.74c-1.151,3.072-1.151,6.385-0.055,9.444l-14.943,7.143c-0.115,0.061-0.134,0.213-0.256,0.28
		h-9.87l18.146-8.357c1.193-0.548,1.729-1.976,1.175-3.182L98.431,18.23c-0.561-1.19-1.979-1.787-3.179-1.169L18.209,52.54
		c-0.561,0.268-1.029,0.74-1.239,1.346c-0.207,0.6-0.183,1.254,0.073,1.833l4.323,9.387h-4.348c-1.328,0-2.387,1.084-2.387,2.405
		c0,0.17,0.024,0.414,0.073,0.646c-0.098,3.501-2.238,6.448-5.31,7.843l-3.787-8.701C8.552,65.684,10.79,63.096,11.962,59.914z
		 M71.328,65.104l-2.81-6.345l0.28-3.16l8.789,8.914l1.827-0.797l1.827-0.847L69.172,50.972l0.978-12.282l-1.827,0.816l-1.778,0.773
		l-0.746,12.373l-4.448-10.084l-1.4,0.618l-1.416,0.648l9.426,21.264h-4.083c-0.094-1.413-0.024-2.734-0.648-4.424l-2.85,1.257
		c0.462,1.255,0.511,2.229,0.487,3.167h-5.918c-0.84-1.133-1.69-2.149-2.469-3.937c-1.172-2.695-1.802-4.89-1.875-6.665
		c-0.076-1.802,0.423-2.874,1.446-3.349c0.84-0.375,1.69-0.28,2.594,0.262c0.867,0.518,1.62,1.428,2.286,2.731l2.832-1.26
		c-1.376-2.601-2.957-4.421-4.676-5.544c-1.72-1.078-3.416-1.288-5.005-0.566c-1.921,0.822-2.908,2.67-2.987,5.499
		c-0.052,2.801,0.767,6.192,2.518,10.193c0.436,1.017,0.935,1.766,1.428,2.63h-2.694l-6.223-14.02l-1.4,0.612l-1.416,0.636
		l5.66,12.778h-6.577l-2.694-6.038l4.064-1.802L38.8,55.1l-0.947-2.174l-10.951,4.862l0.928,2.177l0.938,2.125l4.083-1.771
		l2.107,4.78h-8.342l-4.271-9.219L95.04,22.417l14.267,30.988L83.933,65.099v0.006H71.328L71.328,65.104z M126.624,108.562
		c-6.223,0.956-11.106,6.084-11.691,12.422h-95.48c-0.637-6.704-6.056-12.05-12.815-12.549V81.703
		c6.516-0.492,11.792-5.449,12.714-11.807h95.66c0.865,5.932,5.523,10.645,11.594,11.6v27.061h0.019V108.562z M109.02,73.58H24.216
		c-1.336,0-2.39,1.078-2.39,2.399v38.916c0,1.321,1.054,2.394,2.39,2.394h84.804c1.34,0,2.393-1.072,2.393-2.394V75.979
		C111.413,74.658,110.36,73.58,109.02,73.58z M106.645,112.49H26.609V78.373h80.036V112.49z M34.124,87.342h-4.479v-2.368v-2.362
		h12.004v2.362v2.368h-4.445v21.891h-1.522h-1.559V87.342z M44.755,109.227h-1.51V82.604h1.51h1.547v26.622H44.755z M50.372,106.188
		c-1.214-2.472-1.827-5.869-1.827-10.126c0-4.354,0.612-7.788,1.827-10.339c1.215-2.552,2.856-3.83,4.932-3.83
		c1.751,0,3.212,0.864,4.32,2.545c1.172,1.735,1.852,4.025,2.059,6.973h-3.081c-0.098-1.468-0.442-2.601-1.035-3.416
		c-0.609-0.871-1.328-1.285-2.238-1.285c-1.123,0-2.006,0.816-2.667,2.473c-0.648,1.613-0.98,3.902-0.98,6.85
		c0,2.855,0.332,5.078,0.98,6.692c0.633,1.589,1.52,2.411,2.667,2.411c0.911,0,1.647-0.493,2.238-1.432
		c0.593-0.906,0.938-2.18,1.035-3.787h3.081c-0.18,3.062-0.841,5.523-2.007,7.325c-1.147,1.803-2.594,2.716-4.372,2.716
		C53.228,109.957,51.587,108.709,50.372,106.188z M65.811,109.227H64.24V82.604h1.541h1.52v11.021l5.688-11.021h1.957h1.942
		l-5.846,10.857l6.26,15.759h-2.009h-2.007l-4.463-11.691l-1.528,2.752v8.939h-1.483V109.227z M90.083,109.227H78.854V82.604h10.852
		v2.362v2.369h-7.771v5.657h7.197v2.296v2.289h-7.197v6.924h8.147v2.362V109.227L90.083,109.227z M95.734,87.342H91.3v-2.368v-2.362
		h11.972v2.362v2.368h-4.445v21.891h-1.522h-1.57V87.342z M82.697,62.236L71.934,37.898l9.916-4.378l0.956,2.159l0.956,2.149
		l-7.118,3.163l2.296,5.143l6.601-2.898l0.925,2.125l0.932,2.059l-6.625,2.926l2.783,6.345l7.478-3.273l0.932,2.134l0.926,2.183
		L82.697,62.236z M84.267,35.042l-0.962-2.177l10.979-4.813l0.955,2.132l0.92,2.177l-4.062,1.802l8.866,20.021l-1.4,0.588
		l-1.432,0.679l-8.841-20.021l-4.068,1.775L84.267,35.042z"/>
</g>
<g>
</g>
<g>
</g>
<g>
</g>
<g>
</g>
<g>
</g>
<g>
</g>
<g>
</g>
<g>
</g>
<g>
</g>
<g>
</g>
<g>
</g>
<g>
</g>
<g>
</g>
<g>
</g>
<g>
</g>
</svg>
